<svg width="402" height="72" viewBox="0 0 402 72" fill="none" xmlns="http://www.w3.org/2000/svg">
<path d="M277.351 27.0328C273.017 27.0328 269.628 29.3435 267.66 33.0138C267.24 29.335 265.814 27.2921 261.774 27.6559V64.002H267.694V48.8366C269.666 52.472 273.04 54.7599 277.351 54.7599C284.62 54.7599 290.123 48.7888 290.123 40.8967C290.123 33.0046 284.62 27.0328 277.351 27.0328ZM276.064 47.1785C271.05 47.1785 267.562 44.4786 267.562 40.896C267.562 37.3134 271.05 34.6134 276.064 34.6134C281.079 34.6134 284.512 37.3134 284.512 40.896C284.512 44.4786 281.079 47.1793 276.064 47.1793V47.1785ZM133.318 16.7532V32.9569C131.345 29.3214 127.971 27.0335 123.66 27.0335C116.391 27.0335 110.888 33.0046 110.888 40.8967C110.888 48.7888 116.392 54.7599 123.66 54.7599C127.994 54.7599 131.383 52.4492 133.351 48.7789C133.771 52.4577 135.197 54.5006 139.237 54.1368V16.7532H133.318ZM124.947 47.1793C119.933 47.1793 116.499 44.4793 116.499 40.8967C116.499 37.3141 119.933 34.6142 124.947 34.6142C129.961 34.6142 133.449 37.3141 133.449 40.8967C133.449 44.4793 129.962 47.1793 124.947 47.1793ZM49.4294 27.6569V32.9569C47.4565 29.3214 44.0826 27.0335 39.7719 27.0335C32.5029 27.0335 26.9993 33.0046 26.9993 40.8967C26.9993 48.7888 32.5032 54.7599 39.7719 54.7599C44.1059 54.7599 47.4946 52.4492 49.4628 48.7789C49.8828 52.4577 51.3089 54.5006 55.3486 54.1368V27.6569H49.4294ZM41.0589 47.1793C36.0444 47.1793 32.6105 44.4793 32.6105 40.8967C32.6105 37.3141 36.0444 34.6142 41.0589 34.6142C46.0734 34.6142 49.561 37.3141 49.561 40.8967C49.561 44.4793 46.0734 47.1793 41.0589 47.1793V47.1793ZM185.682 54.7592C178.829 54.7592 173.826 51.3966 172.728 47.0634L178.295 45.076C179.416 47.514 182.721 48.1608 185.941 48.1608C191.56 48.1608 193.163 46.5898 193.163 45.2106C193.163 43.7522 192.113 42.9146 189.382 42.7086C185.711 42.4316 182.369 42.3654 180.408 42.1374C176.203 41.6483 172.977 39.4864 172.977 35.3679C172.977 29.9678 178.524 27.0328 185.632 27.0328C192.124 27.0328 197.002 30.1464 198.172 34.239L192.669 36.2038C191.737 34.7254 189.071 33.659 185.464 33.6348C180.509 33.6035 178.675 34.9273 178.675 36.5102C178.675 37.9265 179.943 38.7157 182.25 38.8899C185.601 39.1413 189.306 39.3124 190.544 39.436C195.226 39.9038 198.805 41.5664 198.805 46.0508C198.804 50.5302 195.191 54.7592 185.682 54.7592ZM245 27.0328C242.258 27.0328 239.578 27.8458 237.298 29.3692C235.018 30.8925 233.241 33.0576 232.192 35.5908C231.143 38.1239 230.868 40.9114 231.403 43.6006C231.938 46.2898 233.258 48.76 235.197 50.6988C237.136 52.6376 239.606 53.9579 242.295 54.4928C244.984 55.0277 247.772 54.7532 250.305 53.7039C252.838 52.6547 255.003 50.8778 256.527 48.598C258.05 46.3182 258.863 43.6379 258.863 40.896C258.863 37.2192 257.402 33.6931 254.803 31.0932C252.203 28.4934 248.677 27.0328 245 27.0328V27.0328ZM245 47.1785C240.344 47.1785 236.878 44.4786 236.878 40.896C236.878 37.3134 240.344 34.6134 245 34.6134C249.655 34.6134 253.071 37.3134 253.071 40.896C253.071 44.4786 249.656 47.1793 245 47.1793L245 47.1785ZM156.27 27.0328C153.529 27.0328 150.848 27.8458 148.568 29.3692C146.289 30.8925 144.512 33.0576 143.462 35.5908C142.413 38.1239 142.139 40.9114 142.674 43.6006C143.209 46.2898 144.529 48.76 146.468 50.6988C148.406 52.6376 150.877 53.9579 153.566 54.4928C156.255 55.0277 159.042 54.7532 161.576 53.7039C164.109 52.6547 166.274 50.8778 167.797 48.598C169.321 46.3182 170.134 43.6379 170.134 40.896C170.134 39.0754 169.775 37.2727 169.078 35.5908C168.382 33.9088 167.361 32.3805 166.073 31.0932C164.786 29.8059 163.258 28.7847 161.576 28.0881C159.894 27.3914 158.091 27.0328 156.27 27.0328V27.0328ZM157.993 48.2234C153.232 48.2234 148.931 43.6524 148.931 39.1294C148.931 35.4973 151.463 33.5827 154.478 33.5827C159.239 33.5827 163.541 38.1536 163.541 42.6769C163.541 46.3094 161.009 48.2241 157.993 48.2241V48.2234ZM97.734 40.896C97.734 33.2397 91.8082 27.0328 83.8708 27.0328C76.2145 27.0328 70.0075 32.9588 70.0075 40.896C70.0075 48.8332 76.2142 54.7592 83.8708 54.7592C89.0745 54.7592 93.9531 52.1271 96.3971 47.7377L91.0975 45.8431C89.6918 47.0198 87.2823 47.8375 84.1684 47.8375C79.4689 47.8375 76.4578 45.6761 75.6229 42.6703H97.6169C97.6936 42.082 97.7327 41.4893 97.734 40.896V40.896ZM75.5882 39.293C76.3931 36.174 79.563 33.9641 84.0925 33.9641C88.5009 33.9641 91.6203 36.174 92.4131 39.293H75.5882ZM60.6031 16.7532V54.1368H66.5221V16.7532H60.6031ZM101.379 54.1368H107.298V27.6569H101.379V54.1368ZM104.345 16.1058C101.457 16.1058 99.3389 17.7747 99.3389 19.9892C99.3389 22.2037 101.457 23.8724 104.345 23.8724C107.234 23.8724 109.384 22.2037 109.384 19.9892C109.384 17.7747 107.234 16.1058 104.345 16.1058V16.1058ZM320.352 40.896C320.352 33.2397 314.426 27.0328 306.489 27.0328C298.833 27.0328 292.626 32.9588 292.626 40.896C292.626 48.8332 298.833 54.7592 306.489 54.7592C311.693 54.7592 316.571 52.1271 319.015 47.7377L313.716 45.8431C312.31 47.0198 309.9 47.8375 306.786 47.8375C302.087 47.8375 299.076 45.6761 298.241 42.6703H320.235C320.312 42.082 320.351 41.4893 320.352 40.896ZM298.206 39.293C299.011 36.174 302.181 33.9641 306.711 33.9641C311.119 33.9641 314.238 36.174 315.031 39.293H298.206ZM228.54 45.5375C226.946 50.9502 222.016 54.7592 215.358 54.7592C207.701 54.7592 201.494 48.8332 201.494 40.896C201.494 32.9588 207.701 27.0328 215.358 27.0328C222.015 27.0328 226.943 30.8396 228.538 36.2499L223.236 38.143C222.049 35.9658 219.21 34.6134 215.42 34.6134C210.513 34.6134 207.124 37.3134 207.124 40.896C207.124 44.4786 210.513 47.1785 215.42 47.1785C219.212 47.1785 222.053 45.8245 223.238 43.6449L228.54 45.5375ZM15.8693 38.2445C22.6269 33.8522 26.6566 25.6886 27.3045 18.3108H19.0706C17.7294 29.7948 12.6604 36.1149 6.13108 38.0514V18.2592H0V54.1291H6.13181V41.8509C7.62533 41.615 9.09668 41.2554 10.5307 40.776L19.9223 54.1291H28.0951L15.8693 38.2445ZM363.495 53.1332C363.493 53.0215 363.449 52.9147 363.372 52.8338C363.295 52.753 363.19 52.7042 363.079 52.6969C359.177 52.0194 355.639 49.9864 353.089 46.956C350.539 43.9257 349.141 40.0925 349.14 36.1321C349.14 28.5812 353.244 22.7778 361.836 17.718C366.583 14.9228 370.128 12.1194 370.128 8.03969C370.128 2.14686 363.665 -1.28574 355.165 0.45007C344.15 2.69945 333.023 13.093 333.023 27.5892C333.023 45.2471 345.812 54.1201 357.676 54.1201C359.943 54.1201 361.024 54.0823 362.523 53.7614C363.204 53.6165 363.495 53.473 363.495 53.1332V53.1332ZM343.817 56.44C341.486 56.44 340.331 57.542 340.331 59.2187C340.331 62.7044 345.254 67.4133 351.7 67.4133C354.375 67.4133 356.523 66.4423 356.523 64.3883C356.523 60.7895 347.861 56.44 343.817 56.44ZM384.837 15.0552C377.182 15.0552 370.466 17.5045 369.079 18.2982C368.328 18.7279 368.214 18.8845 368.214 19.1055C368.214 19.2174 368.257 19.3252 368.334 19.4059C368.412 19.4865 368.518 19.5337 368.63 19.5372C372.572 20.1749 376.158 22.195 378.747 25.2358C381.336 28.2766 382.757 32.1396 382.758 36.1331C382.758 41.6027 380.34 46.1318 376.833 49.6393C372.609 53.8632 367.535 55.5687 364.487 58.295C361.315 61.1334 361.31 65.1915 363.118 67.8442C364.787 70.2935 368.16 71.873 372.893 71.873C385.021 71.873 393.59 61.9846 393.59 49.8487C393.59 43.2564 390.852 37.2322 387.403 32.3122C386.909 31.6076 387.166 31.0444 387.802 31.0444C389.726 31.0444 391.383 34.7349 395.305 34.7349C399.086 34.7349 402 31.9004 402 27.3718C402 21.211 396.019 15.0552 384.837 15.0552Z" fill="#fff"/>
</svg>
